<?xml version="1.0" standalone="no"?>
<!DOCTYPE svg PUBLIC "-//W3C//DTD SVG 20010904//EN"
 "http://www.w3.org/TR/2001/REC-SVG-20010904/DTD/svg10.dtd">
<svg version="1.0" xmlns="http://www.w3.org/2000/svg"
 width="260.000000pt" height="260.000000pt" viewBox="0 0 260.000000 260.000000"
 preserveAspectRatio="xMidYMid meet">
<metadata>
Created by potrace 1.14, written by Peter Selinger 2001-2017
</metadata>
<g transform="translate(0.000000,260.000000) scale(0.100000,-0.100000)"
fill="#000000" stroke="none">
<path d="M1173 2265 c-253 -46 -497 -190 -639 -378 -69 -90 -155 -280 -209
-457 -62 -203 -70 -224 -175 -435 -105 -211 -125 -276 -117 -389 14 -213 208
-419 482 -513 158 -54 362 -67 564 -37 234 34 1349 273 1403 299 18 10 52 36
76 58 l42 41 0 311 c0 207 -4 323 -12 350 -6 22 -11 47 -9 56 4 36 -42 131
-91 185 -84 91 -165 124 -318 127 l-65 2 -8 80 c-9 92 -61 246 -134 395 -57
116 -220 240 -373 283 -126 36 -292 45 -417 22z"/>
</g>
</svg>
